<svg width="22" height="22" viewBox="0 0 22 22" fill="none" xmlns="http://www.w3.org/2000/svg">
<path fill-rule="evenodd" clip-rule="evenodd" d="M6.43799 11.1118C6.43799 8.81282 8.30405 6.93799 10.6021 6.93799C12.9101 6.93799 14.776 8.81282 14.776 11.1118C14.776 13.4188 12.9101 15.2852 10.6021 15.2852C8.30405 15.2852 6.43799 13.4188 6.43799 11.1118ZM16.197 0.916016H5.44397C2.79697 0.916016 0.624023 3.07786 0.624023 5.73486V16.4888C0.624023 19.1338 2.79697 21.3071 5.44397 21.3071H16.197C18.854 21.3071 21.016 19.1338 21.016 16.4888V5.73486C21.016 3.07786 18.854 0.916016 16.197 0.916016ZM5.44397 2.12109H16.197C18.19 2.12109 19.811 3.74186 19.811 5.73486V16.4888C19.811 18.4808 18.19 20.103 16.197 20.103H5.44397C3.44997 20.103 1.82898 18.4808 1.82898 16.4888V5.73486C1.82898 3.74186 3.44997 2.12109 5.44397 2.12109ZM17.266 3.64014C16.681 3.64014 16.208 4.11422 16.208 4.69922C16.208 5.28522 16.681 5.75781 17.266 5.75781C17.852 5.75781 18.325 5.28522 18.325 4.69922C18.325 4.11422 17.852 3.64014 17.266 3.64014ZM15.866 11.1118C15.866 8.20982 13.5141 5.84717 10.6021 5.84717C7.69905 5.84717 5.33801 8.20982 5.33801 11.1118C5.33801 14.0228 7.69905 16.376 10.6021 16.376C13.5141 16.376 15.866 14.0228 15.866 11.1118Z" fill="#33CEAD"/>
</svg>
